<svg width="218" height="24" viewBox="0 0 218 24" fill="none" xmlns="http://www.w3.org/2000/svg">
<path d="M11.4594 23.2259C9.96277 23.2259 8.46741 22.9286 7.045 22.3345C4.22183 21.1551 2.02715 18.9472 0.865143 16.1169C-0.297293 13.2869 -0.287961 10.1736 0.891014 7.35045C2.06999 4.52727 4.27824 2.3326 7.1082 1.17016C7.23246 1.11885 7.35884 1.06965 7.48522 1.02258C8.63706 0.594669 9.91611 1.18246 10.3432 2.33345C10.7707 3.48486 10.1837 4.76434 9.0323 5.1914C8.95427 5.22024 8.87666 5.25077 8.79905 5.28258C7.06622 5.99421 5.71506 7.33731 4.99368 9.06421C4.2723 10.7911 4.26678 12.6957 4.97756 14.4268C5.68876 16.1584 7.03144 17.5091 8.75834 18.2305C10.4848 18.9515 12.3898 18.9574 14.121 18.2466C17.6952 16.7789 19.4086 12.677 17.9408 9.1028C17.4739 7.96708 18.0167 6.66767 19.1528 6.20116C20.2894 5.73466 21.588 6.2775 22.0545 7.41322C24.4536 13.2555 21.6528 19.9604 15.811 22.3595C14.4072 22.9375 12.9331 23.2259 11.4594 23.2259Z" fill="url(#paint0_linear_18_1050)"/>
<path d="M24.1525 22.4993C23.2025 22.4993 22.3229 21.8861 22.0282 20.931C21.6664 19.7576 22.3242 18.5129 23.4977 18.1507C26.4506 17.2393 28.4349 14.548 28.4349 11.4539C28.4349 7.58997 25.2916 4.44703 21.4277 4.44703C17.5638 4.44703 14.4204 7.59039 14.4204 11.4539C14.4204 12.2372 14.5485 13.006 14.8004 13.7385C15.2003 14.8996 14.5833 16.1647 13.4221 16.565C12.2601 16.9645 10.9959 16.3479 10.5959 15.1867C10.1829 13.9874 9.97339 12.7312 9.97339 11.4539C9.97339 5.13829 15.1117 0 21.4273 0C27.7428 0 32.8811 5.13829 32.8811 11.4539C32.8811 16.5112 29.6368 20.9098 24.8077 22.4001C24.5901 22.4675 24.3692 22.4993 24.1525 22.4993Z" fill="url(#paint1_linear_18_1050)"/>
<path d="M48.1401 23.07C46.7401 23.07 45.4401 22.81 44.2401 22.29C43.0401 21.75 42.0201 21.02 41.1801 20.1C40.3401 19.18 39.7201 18.12 39.3201 16.92L42.3201 15.66C42.8601 17.04 43.6501 18.1 44.6901 18.84C45.7301 19.58 46.9301 19.95 48.2901 19.95C49.0901 19.95 49.7901 19.83 50.3901 19.59C50.9901 19.33 51.4501 18.97 51.7701 18.51C52.1101 18.05 52.2801 17.52 52.2801 16.92C52.2801 16.1 52.0501 15.45 51.5901 14.97C51.1301 14.49 50.4501 14.11 49.5501 13.83L45.3501 12.51C43.6701 11.99 42.3901 11.2 41.5101 10.14C40.6301 9.06 40.1901 7.8 40.1901 6.36C40.1901 5.1 40.5001 4 41.1201 3.06C41.7401 2.1 42.5901 1.35 43.6701 0.81C44.7701 0.27 46.0201 0 47.4201 0C48.7601 0 49.9801 0.24 51.0801 0.72C52.1801 1.18 53.1201 1.82 53.9001 2.64C54.7001 3.46 55.2801 4.41 55.6401 5.49L52.7001 6.78C52.2601 5.6 51.5701 4.69 50.6301 4.05C49.7101 3.41 48.6401 3.09 47.4201 3.09C46.6801 3.09 46.0301 3.22 45.4701 3.48C44.9101 3.72 44.4701 4.08 44.1501 4.56C43.8501 5.02 43.7001 5.56 43.7001 6.18C43.7001 6.9 43.9301 7.54 44.3901 8.1C44.8501 8.66 45.5501 9.08 46.4901 9.36L50.3901 10.59C52.1701 11.13 53.5101 11.91 54.4101 12.93C55.3101 13.93 55.7601 15.18 55.7601 16.68C55.7601 17.92 55.4301 19.02 54.7701 19.98C54.1301 20.94 53.2401 21.7 52.1001 22.26C50.9601 22.8 49.6401 23.07 48.1401 23.07Z" fill="#191D27"/>
<path d="M70.5939 23.07C68.9739 23.07 67.4639 22.78 66.0639 22.2C64.6839 21.62 63.4639 20.81 62.4039 19.77C61.3639 18.73 60.5439 17.51 59.9439 16.11C59.3639 14.71 59.0739 13.18 59.0739 11.52C59.0739 9.86 59.3639 8.33 59.9439 6.93C60.5439 5.51 61.3639 4.29 62.4039 3.27C63.4439 2.23 64.6639 1.43 66.0639 0.87C67.4639 0.29 68.9739 0 70.5939 0C72.2339 0 73.7439 0.29 75.1239 0.87C76.5239 1.43 77.7439 2.23 78.7839 3.27C79.8439 4.31 80.6639 5.53 81.2439 6.93C81.8239 8.33 82.1139 9.86 82.1139 11.52C82.1139 13.18 81.8139 14.71 81.2139 16.11C80.6339 17.51 79.8239 18.73 78.7839 19.77C77.7439 20.81 76.5239 21.62 75.1239 22.2C73.7239 22.78 72.2139 23.07 70.5939 23.07ZM70.5939 19.83C71.7539 19.83 72.8139 19.62 73.7739 19.2C74.7539 18.78 75.6039 18.2 76.3239 17.46C77.0439 16.7 77.6039 15.82 78.0039 14.82C78.4039 13.8 78.6039 12.7 78.6039 11.52C78.6039 10.34 78.4039 9.25 78.0039 8.25C77.6039 7.25 77.0439 6.37 76.3239 5.61C75.6039 4.85 74.7539 4.26 73.7739 3.84C72.8139 3.42 71.7539 3.21 70.5939 3.21C69.4339 3.21 68.3639 3.42 67.3839 3.84C66.4239 4.26 65.5839 4.85 64.8639 5.61C64.1439 6.37 63.5839 7.25 63.1839 8.25C62.8039 9.25 62.6139 10.34 62.6139 11.52C62.6139 12.7 62.8039 13.8 63.1839 14.82C63.5839 15.82 64.1439 16.7 64.8639 17.46C65.5839 18.2 66.4339 18.78 67.4139 19.2C68.3939 19.62 69.4539 19.83 70.5939 19.83Z" fill="#191D27"/>
<path d="M86.0718 22.71V0.359999H88.9218L101.462 17.67L100.112 17.88V0.359999H103.622V22.71H100.772L88.3218 5.28L89.6118 5.04V22.71H86.0718Z" fill="#191D27"/>
<path d="M119.11 23.07C117.49 23.07 115.98 22.78 114.58 22.2C113.2 21.62 111.98 20.81 110.92 19.77C109.88 18.73 109.06 17.51 108.46 16.11C107.88 14.71 107.59 13.18 107.59 11.52C107.59 9.86 107.88 8.33 108.46 6.93C109.06 5.51 109.88 4.29 110.92 3.27C111.96 2.23 113.18 1.43 114.58 0.87C115.98 0.29 117.49 0 119.11 0C120.75 0 122.26 0.29 123.64 0.87C125.04 1.43 126.26 2.23 127.3 3.27C128.36 4.31 129.18 5.53 129.76 6.93C130.34 8.33 130.63 9.86 130.63 11.52C130.63 13.18 130.33 14.71 129.73 16.11C129.15 17.51 128.34 18.73 127.3 19.77C126.26 20.81 125.04 21.62 123.64 22.2C122.24 22.78 120.73 23.07 119.11 23.07ZM119.11 19.83C120.27 19.83 121.33 19.62 122.29 19.2C123.27 18.78 124.12 18.2 124.84 17.46C125.56 16.7 126.12 15.82 126.52 14.82C126.92 13.8 127.12 12.7 127.12 11.52C127.12 10.34 126.92 9.25 126.52 8.25C126.12 7.25 125.56 6.37 124.84 5.61C124.12 4.85 123.27 4.26 122.29 3.84C121.33 3.42 120.27 3.21 119.11 3.21C117.95 3.21 116.88 3.42 115.9 3.84C114.94 4.26 114.1 4.85 113.38 5.61C112.66 6.37 112.1 7.25 111.7 8.25C111.32 9.25 111.13 10.34 111.13 11.52C111.13 12.7 111.32 13.8 111.7 14.82C112.1 15.82 112.66 16.7 113.38 17.46C114.1 18.2 114.95 18.78 115.93 19.2C116.91 19.62 117.97 19.83 119.11 19.83Z" fill="#191D27"/>
<path d="M134.587 22.71V0.359999H142.717C144.217 0.359999 145.537 0.64 146.677 1.2C147.817 1.74 148.707 2.54 149.347 3.6C150.007 4.64 150.337 5.89 150.337 7.35C150.337 8.89 149.947 10.21 149.167 11.31C148.407 12.41 147.377 13.21 146.077 13.71L151.237 22.71H147.217L141.727 12.96L144.037 14.31H138.127V22.71H134.587ZM138.127 11.16H142.777C143.597 11.16 144.307 11 144.907 10.68C145.507 10.36 145.967 9.92 146.287 9.36C146.627 8.78 146.797 8.1 146.797 7.32C146.797 6.54 146.627 5.87 146.287 5.31C145.967 4.73 145.507 4.29 144.907 3.99C144.307 3.67 143.597 3.51 142.777 3.51H138.127V11.16Z" fill="#191D27"/>
<path d="M165.076 23.07C163.456 23.07 161.946 22.78 160.546 22.2C159.166 21.62 157.946 20.81 156.886 19.77C155.846 18.73 155.026 17.51 154.426 16.11C153.846 14.71 153.556 13.18 153.556 11.52C153.556 9.86 153.846 8.33 154.426 6.93C155.026 5.51 155.846 4.29 156.886 3.27C157.926 2.23 159.146 1.43 160.546 0.87C161.946 0.29 163.456 0 165.076 0C166.716 0 168.226 0.29 169.606 0.87C171.006 1.43 172.226 2.23 173.266 3.27C174.326 4.31 175.146 5.53 175.726 6.93C176.306 8.33 176.596 9.86 176.596 11.52C176.596 13.18 176.296 14.71 175.696 16.11C175.116 17.51 174.306 18.73 173.266 19.77C172.226 20.81 171.006 21.62 169.606 22.2C168.206 22.78 166.696 23.07 165.076 23.07ZM165.076 19.83C166.236 19.83 167.296 19.62 168.256 19.2C169.236 18.78 170.086 18.2 170.806 17.46C171.526 16.7 172.086 15.82 172.486 14.82C172.886 13.8 173.086 12.7 173.086 11.52C173.086 10.34 172.886 9.25 172.486 8.25C172.086 7.25 171.526 6.37 170.806 5.61C170.086 4.85 169.236 4.26 168.256 3.84C167.296 3.42 166.236 3.21 165.076 3.21C163.916 3.21 162.846 3.42 161.866 3.84C160.906 4.26 160.066 4.85 159.346 5.61C158.626 6.37 158.066 7.25 157.666 8.25C157.286 9.25 157.096 10.34 157.096 11.52C157.096 12.7 157.286 13.8 157.666 14.82C158.066 15.82 158.626 16.7 159.346 17.46C160.066 18.2 160.916 18.78 161.896 19.2C162.876 19.62 163.936 19.83 165.076 19.83Z" fill="#191D27"/>
<path d="M188.924 23.07C187.264 23.07 185.784 22.72 184.484 22.02C183.204 21.32 182.194 20.36 181.454 19.14C180.734 17.92 180.374 16.53 180.374 14.97V0.359999H183.914V14.82C183.914 15.8 184.124 16.67 184.544 17.43C184.984 18.19 185.574 18.78 186.314 19.2C187.074 19.62 187.944 19.83 188.924 19.83C189.924 19.83 190.794 19.62 191.534 19.2C192.294 18.78 192.884 18.19 193.304 17.43C193.744 16.67 193.964 15.8 193.964 14.82V0.359999H197.474V14.97C197.474 16.53 197.114 17.92 196.394 19.14C195.674 20.36 194.664 21.32 193.364 22.02C192.084 22.72 190.604 23.07 188.924 23.07Z" fill="#191D27"/>
<path d="M209.742 23.07C208.342 23.07 207.042 22.81 205.842 22.29C204.642 21.75 203.622 21.02 202.782 20.1C201.942 19.18 201.322 18.12 200.922 16.92L203.922 15.66C204.462 17.04 205.252 18.1 206.292 18.84C207.332 19.58 208.532 19.95 209.892 19.95C210.692 19.95 211.392 19.83 211.992 19.59C212.592 19.33 213.052 18.97 213.372 18.51C213.712 18.05 213.882 17.52 213.882 16.92C213.882 16.1 213.652 15.45 213.192 14.97C212.732 14.49 212.052 14.11 211.152 13.83L206.952 12.51C205.272 11.99 203.992 11.2 203.112 10.14C202.232 9.06 201.792 7.8 201.792 6.36C201.792 5.1 202.102 4 202.722 3.06C203.342 2.1 204.192 1.35 205.272 0.81C206.372 0.27 207.622 0 209.022 0C210.362 0 211.582 0.24 212.682 0.72C213.782 1.18 214.722 1.82 215.502 2.64C216.302 3.46 216.882 4.41 217.242 5.49L214.302 6.78C213.862 5.6 213.172 4.69 212.232 4.05C211.312 3.41 210.242 3.09 209.022 3.09C208.282 3.09 207.632 3.22 207.072 3.48C206.512 3.72 206.072 4.08 205.752 4.56C205.452 5.02 205.302 5.56 205.302 6.18C205.302 6.9 205.532 7.54 205.992 8.1C206.452 8.66 207.152 9.08 208.092 9.36L211.992 10.59C213.772 11.13 215.112 11.91 216.012 12.93C216.912 13.93 217.362 15.18 217.362 16.68C217.362 17.92 217.032 19.02 216.372 19.98C215.732 20.94 214.842 21.7 213.702 22.26C212.562 22.8 211.242 23.07 209.742 23.07Z" fill="#191D27"/>
<defs>
<linearGradient id="paint0_linear_18_1050" x1="7.74934" y1="12.3508" x2="19.1459" y2="10.9389" gradientUnits="userSpaceOnUse">
<stop stop-color="#DC66AD"/>
<stop offset="1" stop-color="#7534FF"/>
</linearGradient>
<linearGradient id="paint1_linear_18_1050" x1="20.0199" y1="11.8374" x2="8.77728" y2="14.9143" gradientUnits="userSpaceOnUse">
<stop stop-color="#D764BB"/>
<stop offset="1" stop-color="#7534FF"/>
</linearGradient>
</defs>
</svg>
